<?xml version="1.0" encoding="UTF-8" standalone="no"?>
<!-- Generator: Adobe Illustrator 20.1.0, SVG Export Plug-In . SVG Version: 6.00 Build 0)  -->

<svg
   version="1.1"
   id="Layer_1"
   x="0px"
   y="0px"
   viewBox="0 0 128 128"
   xml:space="preserve"
   sodipodi:docname="termleek.svg"
   width="128"
   height="128"
   inkscape:version="1.2.2 (b0a8486541, 2022-12-01)"
   xmlns:inkscape="http://www.inkscape.org/namespaces/inkscape"
   xmlns:sodipodi="http://sodipodi.sourceforge.net/DTD/sodipodi-0.dtd"
   xmlns="http://www.w3.org/2000/svg"
   xmlns:svg="http://www.w3.org/2000/svg"><defs
   id="defs264" /><sodipodi:namedview
   id="namedview262"
   pagecolor="#ffffff"
   bordercolor="#999999"
   borderopacity="1"
   inkscape:showpageshadow="0"
   inkscape:pageopacity="0"
   inkscape:pagecheckerboard="0"
   inkscape:deskcolor="#d1d1d1"
   showgrid="false"
   inkscape:zoom="4.078125"
   inkscape:cx="79.32567"
   inkscape:cy="69.639847"
   inkscape:window-width="1366"
   inkscape:window-height="729"
   inkscape:window-x="0"
   inkscape:window-y="0"
   inkscape:window-maximized="1"
   inkscape:current-layer="Layer_1" />









<g
   id="g1379"
   transform="matrix(1.0046492,0,0,1.0046492,0.36970906,-1.9651902)"
   style="stroke-width:0.995372"><path
     id="path556-67-3"
     style="fill:#babdb6;fill-opacity:1;fill-rule:evenodd;stroke:none;stroke-width:1.99012;stroke-linecap:butt;stroke-linejoin:miter;stroke-dasharray:none;stroke-opacity:1"
     d="m 107.0299,3.2976019 c -8.871764,2.7167403 -17.743541,5.4334309 -26.615236,8.1503911 -1.41375,4.274192 -2.828172,8.548161 -4.242187,12.822265 -2.018872,0.807313 -4.037836,1.614394 -6.056641,2.421875 -1.137684,2.954408 -2.278875,5.907464 -3.417969,8.861329 -4.10998,1.345842 -8.220361,2.690462 -12.330078,4.037109 C 51.701343,47.776628 49.035828,55.96299 46.369742,64.149165 34.456676,75.01802 22.508874,85.850611 10.639273,96.764399 9.4813413,98.028607 8.4973528,99.452265 7.7291167,100.9851 c -3.030647,1.0988 -5.9537989,3.03597 -7.49284276,5.94143 -1.19009853,2.57682 -0.5813579,5.86046 1.46549896,7.83005 -0.4963239,3.56702 2.2246129,7.18325 5.776336,7.73075 0.8898693,2.64983 3.4722561,4.74176 6.3196521,4.85589 0.744515,0.0936 1.557261,-0.19043 2.234091,-0.17648 2.474471,2.53644 6.929848,2.77055 9.558593,0.3418 2.133055,-1.88031 2.681399,-4.82415 3.049187,-7.50472 -0.07713,-0.69804 0.809536,-0.80214 1.17347,-1.25505 2.084257,-1.75853 3.809482,-3.88944 5.760271,-5.7881 C 44.67672,103.5528 53.780067,94.144929 62.883414,84.737055 75.20767,80.785999 87.531626,76.834007 99.85607,72.88354 c 0.88371,-4.972727 1.76829,-9.945302 2.65234,-14.917969 3.50214,-2.314179 7.02447,-4.634324 10.76367,-6.537109 1.0231,-0.639024 1.30679,-1.98944 0.88076,-3.071987 -0.65687,-2.722098 -1.31373,-5.444196 -1.9706,-8.166295 3.24222,-2.826784 6.48413,-5.65393 9.72656,-8.480468 -1.20221,-4.43266 -2.40219,-8.865926 -3.60351,-13.298829 2.91142,-4.819029 5.82267,-9.638168 8.73437,-14.4570311 -6.23513,1.6947334 -12.47132,3.3855261 -18.70703,5.078125 0.8541,-2.3060132 1.70829,-4.6119952 2.5625,-6.9179687 -1.28841,0.3945312 -2.57682,0.7890625 -3.86523,1.1835937 z" /><path
     id="path556-67"
     style="fill:#9abf79;fill-opacity:1;fill-rule:evenodd;stroke:none;stroke-width:1.99012;stroke-linecap:butt;stroke-linejoin:miter;stroke-dasharray:none;stroke-opacity:1"
     d="m 103.31213,10.749997 -15.919909,4.875 -4.14843,12.529296 -6.21485,2.486328 -3.50586,9.078126 -12.13672,3.972656 -7.546874,23.175781 -36.439456,33.207036 c -1.637706,1.76159 -2.511421,3.5562 -2.80664,5.26562 -2.204658,0.34479 -4.456289,1.06434 -6.4277355,3.0918 a 0.99968499,0.99968499 0 0 0 0.01953,1.41406 0.99968499,0.99968499 0 0 0 1.414064,-0.0195 c 1.4909015,-1.53326 3.1315445,-2.13828 4.9179685,-2.45117 0.100726,1.09311 0.428852,2.12285 0.939454,3.05469 l -5.123048,3.67968 a 0.99968499,0.99968499 0 0 0 -0.228516,1.39453 0.99968499,0.99968499 0 0 0 1.396486,0.22852 l 5.113281,-3.67383 c 0.723016,0.80456 1.592203,1.47976 2.552734,1.99219 l -3.550781,5.06836 a 0.99968499,0.99968499 0 0 0 0.24414,1.39258 0.99968499,0.99968499 0 0 0 1.392579,-0.2461 l 3.820312,-5.45117 c 0.644241,0.17671 1.307042,0.27984 1.978516,0.30469 0.130412,2.1162 -0.108863,4.34104 -0.740235,6.11523 a 0.99968499,0.99968499 0 0 0 0.605469,1.27735 0.99968499,0.99968499 0 0 0 1.277344,-0.60547 c 0.754957,-2.12147 1.016008,-4.59185 0.855469,-6.95899 1.230993,-0.26168 2.441602,-0.81492 3.550781,-1.73047 l 33.273438,-34.386711 34.96289,-11.208989 2.47265,-13.910156 8.271489,-5.404297 2.46875,-1.373047 -2.29883,-9.527343 9.63867,-8.404297 -3.29102,-12.148438 2.31836,-3.837891 -15.50195,4.205079 z" /><g
     id="g1116"
     style="stroke-width:0.995372"><path
       style="fill:#4e9a06;fill-rule:evenodd;stroke:none;stroke-width:1.99012;stroke-linecap:butt;stroke-linejoin:miter;stroke-dasharray:none;stroke-opacity:1"
       d="M 86.393068,14.625749 102.31302,9.7500263 87.727851,49.119098 72.691144,56.007512 Z"
       id="path556"
       sodipodi:nodetypes="ccccc" /><path
       style="fill:#73d216;fill-rule:evenodd;stroke:none;stroke-width:1.99012;stroke-linecap:butt;stroke-linejoin:miter;stroke-dasharray:none;stroke-opacity:1"
       d="M 49.42009,76.369341 60.386504,42.691265 76.094179,37.549804 62.741686,63.469013 Z"
       id="path498"
       sodipodi:nodetypes="ccccc" /><path
       style="fill:#5faf13;fill-opacity:1;fill-rule:evenodd;stroke:none;stroke-width:1.99012;stroke-linecap:butt;stroke-linejoin:miter;stroke-dasharray:none;stroke-opacity:1"
       d="M 94.063205,22.427088 76.028822,29.639816 60.024158,71.070695 74.413799,64.790951 Z"
       id="path500"
       sodipodi:nodetypes="ccccc" /><path
       style="fill:#4e9a06;fill-rule:evenodd;stroke:none;stroke-width:1.99012;stroke-linecap:butt;stroke-linejoin:miter;stroke-dasharray:none;stroke-opacity:1"
       d="m 112.66113,14.24105 3.72877,13.76173 -30.366698,26.478444 -20.311169,6.62195 z"
       id="path560"
       sodipodi:nodetypes="ccccc" /><path
       style="fill:#8ae234;fill-rule:evenodd;stroke:none;stroke-width:1.99012;stroke-linecap:butt;stroke-linejoin:miter;stroke-dasharray:none;stroke-opacity:1"
       d="M 96.53157,17.139697 115.41762,12.015559 89.04141,55.660164 73.421622,60.816868 Z"
       id="path558"
       sodipodi:nodetypes="ccccc" /><path
       style="fill:#4e9a06;fill-rule:evenodd;stroke:none;stroke-width:1.99012;stroke-linecap:butt;stroke-linejoin:miter;stroke-dasharray:none;stroke-opacity:1"
       d="M 98.67657,50.652315 95.837477,66.621843 54.535144,79.863276 50.172927,74.635847 Z"
       id="path611"
       sodipodi:nodetypes="ccccc" /><path
       style="fill:#5faf13;fill-opacity:1;fill-rule:evenodd;stroke:none;stroke-width:1.99012;stroke-linecap:butt;stroke-linejoin:miter;stroke-dasharray:none;stroke-opacity:1"
       d="M 105.95972,33.130554 109.0508,45.932996 69.088355,68.181337 50.74786,69.669261 Z"
       id="path562"
       sodipodi:nodetypes="ccccc" /><path
       style="color:#000000;fill:#c4a000;fill-rule:evenodd;stroke:none;stroke-width:0.995372;stroke-linecap:round;-inkscape-stroke:none"
       d="m 22.572266,110.80078 a 0.99968499,0.99968499 0 0 0 -0.789063,1.17188 c 0.519121,2.65961 0.380414,5.87003 -0.470703,8.26172 a 0.99968499,0.99968499 0 0 0 0.605469,1.27734 0.99968499,0.99968499 0 0 0 1.277343,-0.60547 c 1.011294,-2.84179 1.135926,-6.30853 0.548829,-9.31641 a 0.99968499,0.99968499 0 0 0 -1.171875,-0.78906 z"
       id="path670" /><path
       style="color:#000000;fill:#c4a000;fill-rule:evenodd;stroke:none;stroke-width:0.995372;stroke-linecap:round;-inkscape-stroke:none"
       d="m 21.855469,109.53125 a 0.99968499,0.99968499 0 0 0 -1.392578,0.24609 l -5.845703,8.3418 a 0.99968499,0.99968499 0 0 0 0.24414,1.39258 0.99968499,0.99968499 0 0 0 1.392578,-0.24609 l 5.845703,-8.3418 a 0.99968499,0.99968499 0 0 0 -0.24414,-1.39258 z"
       id="path668" /><path
       style="color:#000000;fill:#c4a000;fill-rule:evenodd;stroke:none;stroke-width:0.995372;stroke-linecap:round;-inkscape-stroke:none"
       d="m 18.320312,107.01563 a 0.99968499,0.99968499 0 0 0 -0.746093,0.17382 l -8.2402346,5.91993 a 0.99968499,0.99968499 0 0 0 -0.2285156,1.39453 0.99968499,0.99968499 0 0 0 1.3964842,0.22851 l 8.238281,-5.91992 a 0.99968499,0.99968499 0 0 0 0.230469,-1.39453 0.99968499,0.99968499 0 0 0 -0.650391,-0.40234 z"
       id="path666" /><path
       style="color:#000000;fill:#c4a000;fill-rule:evenodd;stroke:none;stroke-width:0.995372;stroke-linecap:round;-inkscape-stroke:none"
       d="m 17.166016,103.95313 c -3.192446,0.32978 -6.934189,0.32559 -10.0000004,3.47851 a 0.99968499,0.99968499 0 0 0 0.019531,1.41406 0.99968499,0.99968499 0 0 0 1.4140625,-0.0195 c 2.5063939,-2.57761 5.4317689,-2.53781 8.7714849,-2.88281 a 0.99968499,0.99968499 0 0 0 0.892578,-1.09766 0.99968499,0.99968499 0 0 0 -1.097656,-0.89257 z"
       id="path664" /><path
       style="fill:#8ae234;fill-rule:evenodd;stroke:none;stroke-width:1.99012;stroke-linecap:butt;stroke-linejoin:miter;stroke-dasharray:none;stroke-opacity:1"
       d="M 16.400086,99.074245 53.386198,65.369416 107.71006,46.569501 62.593067,76.05552 27.602134,112.21764 C 20.063218,118.44043 7.8362502,108.28589 16.400086,99.074245 Z"
       id="path613"
       sodipodi:nodetypes="cccccc" /></g><path
     style="color:#000000;fill:#ade96d;fill-opacity:1;fill-rule:evenodd;stroke:none;stroke-width:0.990766;stroke-linecap:round;-inkscape-stroke:none"
     d="M 55.933594,74.990234 22.8125,106.90625 a 1.5,1.5 0 0 0 -0.03906,2.12109 1.5,1.5 0 0 0 2.121094,0.0391 L 58.015625,77.150391 a 1.5,1.5 0 0 0 0.03906,-2.121094 1.5,1.5 0 0 0 -2.121093,-0.03906 z"
     id="path1276" /></g></svg>
