<?xml version="1.0" encoding="UTF-8" standalone="no"?>
<!-- Generator: Adobe Illustrator 20.1.0, SVG Export Plug-In . SVG Version: 6.00 Build 0)  -->

<svg
   version="1.1"
   id="Layer_1"
   x="0px"
   y="0px"
   viewBox="0 0 128 128"
   xml:space="preserve"
   sodipodi:docname="termleek.svg"
   width="128"
   height="128"
   inkscape:version="1.2.2 (b0a8486541, 2022-12-01)"
   xmlns:inkscape="http://www.inkscape.org/namespaces/inkscape"
   xmlns:sodipodi="http://sodipodi.sourceforge.net/DTD/sodipodi-0.dtd"
   xmlns="http://www.w3.org/2000/svg"
   xmlns:svg="http://www.w3.org/2000/svg"><defs
   id="defs264" /><sodipodi:namedview
   id="namedview262"
   pagecolor="#ffffff"
   bordercolor="#999999"
   borderopacity="1"
   inkscape:showpageshadow="0"
   inkscape:pageopacity="0"
   inkscape:pagecheckerboard="0"
   inkscape:deskcolor="#d1d1d1"
   showgrid="false"
   inkscape:zoom="2.3453301"
   inkscape:cx="56.068866"
   inkscape:cy="72.910845"
   inkscape:window-width="1366"
   inkscape:window-height="729"
   inkscape:window-x="0"
   inkscape:window-y="0"
   inkscape:window-maximized="1"
   inkscape:current-layer="Layer_1" />









<g
   id="g1102"><path
     id="path556-67-3"
     style="fill:#babdb6;fill-opacity:1;fill-rule:evenodd;stroke:none;stroke-width:1.99937;stroke-linecap:butt;stroke-linejoin:miter;stroke-dasharray:none;stroke-opacity:1"
     d="m 107.89721,1.3477429 c -8.913008,2.729371 -17.826032,5.458692 -26.738973,8.1882839 -1.420323,4.2940632 -2.841321,8.5879032 -4.26191,12.8818782 -2.028258,0.811066 -4.056609,1.6219 -6.084799,2.433135 -1.142974,2.968143 -2.28947,5.934929 -3.43386,8.902527 -4.129088,1.352099 -8.258579,2.70297 -12.387403,4.055878 -2.678843,8.224116 -5.356751,16.448538 -8.035232,24.672772 -11.968452,10.919387 -23.971802,21.80234 -35.896587,32.766869 -1.163315,1.270085 -2.1518782,2.700362 -2.923686,4.240324 -3.0447371,1.10391 -5.9814793,3.05008 -7.52767852,5.96905 -1.19563153,2.5888 -0.58406074,5.88771 1.47231232,7.86646 -0.4986314,3.5836 2.2349556,7.21664 5.8031914,7.76669 0.8940065,2.66215 3.4883988,4.7638 6.3490338,4.87846 0.747976,0.094 1.564501,-0.19131 2.244477,-0.1773 2.485976,2.54824 6.962067,2.78343 9.603033,0.34339 2.142972,-1.88905 2.693866,-4.84658 3.063363,-7.53961 -0.07749,-0.70128 0.8133,-0.80587 1.178926,-1.26088 2.093947,-1.76671 3.827193,-3.90753 5.787052,-5.81501 9.14567,-9.45161 18.29134,-18.903223 27.437011,-28.354836 12.381554,-3.969425 24.762806,-7.939791 37.144549,-11.908624 0.88782,-4.995846 1.77651,-9.99154 2.66467,-14.987326 3.51842,-2.324938 7.05713,-4.65587 10.81371,-6.567501 1.02786,-0.641995 1.31287,-1.998689 0.88486,-3.086269 -0.65993,-2.734754 -1.31984,-5.469507 -1.97976,-8.204262 3.25729,-2.839926 6.51427,-5.680216 9.77178,-8.519895 -1.2078,-4.453269 -2.41336,-8.907146 -3.62027,-13.360658 2.92496,-4.841434 5.84974,-9.6829781 8.77498,-14.5242451 -6.26412,1.7026126 -12.5293,3.4012661 -18.794,5.1017343 0.85807,-2.3167343 1.71623,-4.6334373 2.57441,-6.95013175 -1.2944,0.39636545 -2.5888,0.79273101 -3.8832,1.18909645 z" /><path
     id="path556-67"
     style="fill:#9abf79;fill-opacity:1;fill-rule:evenodd;stroke:none;stroke-width:1.99937;stroke-linecap:butt;stroke-linejoin:miter;stroke-dasharray:none;stroke-opacity:1"
     d="m 104.16216,8.8347857 -15.993926,4.8976653 -4.167717,12.587547 -6.243744,2.497887 -3.522159,9.120332 -12.193146,3.991126 -7.581961,23.28353 -36.608871,33.361422 c -1.64532,1.769775 -2.523097,3.572735 -2.819688,5.290105 -2.214908,0.34639 -4.477008,1.06928 -6.4576197,3.10617 a 1.0043327,1.0043327 0 0 0 0.019621,1.42063 1.0043327,1.0043327 0 0 0 1.4206377,-0.0196 c 1.497833,-1.54038 3.146104,-2.14822 4.940834,-2.46256 0.101194,1.09819 0.430845,2.13272 0.943821,3.06889 l -5.146866,3.69679 a 1.0043327,1.0043327 0 0 0 -0.229578,1.40101 1.0043327,1.0043327 0 0 0 1.402978,0.22958 l 5.137054,-3.69091 c 0.726377,0.8083 1.599605,1.48664 2.564602,2.00145 l -3.567289,5.09193 a 1.0043327,1.0043327 0 0 0 0.245275,1.39905 1.0043327,1.0043327 0 0 0 1.399053,-0.24724 l 3.838074,-5.47651 c 0.647236,0.17753 1.313118,0.28114 1.987714,0.3061 0.131018,2.12604 -0.109369,4.36122 -0.743676,6.14366 a 1.0043327,1.0043327 0 0 0 0.608284,1.28329 1.0043327,1.0043327 0 0 0 1.283282,-0.60828 c 0.758467,-2.13134 1.020732,-4.6132 0.859446,-6.99135 1.236717,-0.26289 2.452954,-0.81871 3.56729,-1.73851 L 62.532018,77.231416 97.657457,65.970314 100.1416,51.995487 l 8.30995,-5.429423 2.48023,-1.37943 -2.30952,-9.571638 9.68348,-8.44337 -3.30632,-12.204919 2.32914,-3.855734 -15.57402,4.224629 z" /><g
     id="g1116"
     style="stroke-width:0.995372"
     transform="matrix(1.0046492,0,0,1.0046492,0.36970906,-1.9651902)"><path
       style="fill:#4e9a06;fill-rule:evenodd;stroke:none;stroke-width:1.99012;stroke-linecap:butt;stroke-linejoin:miter;stroke-dasharray:none;stroke-opacity:1"
       d="M 86.393068,14.625749 102.31302,9.7500263 87.727851,49.119098 72.691144,56.007512 Z"
       id="path556"
       sodipodi:nodetypes="ccccc" /><path
       style="fill:#73d216;fill-rule:evenodd;stroke:none;stroke-width:1.99012;stroke-linecap:butt;stroke-linejoin:miter;stroke-dasharray:none;stroke-opacity:1"
       d="M 49.42009,76.369341 60.386504,42.691265 76.094179,37.549804 62.741686,63.469013 Z"
       id="path498"
       sodipodi:nodetypes="ccccc" /><path
       style="fill:#5faf13;fill-opacity:1;fill-rule:evenodd;stroke:none;stroke-width:1.99012;stroke-linecap:butt;stroke-linejoin:miter;stroke-dasharray:none;stroke-opacity:1"
       d="M 94.063205,22.427088 76.028822,29.639816 60.024158,71.070695 74.413799,64.790951 Z"
       id="path500"
       sodipodi:nodetypes="ccccc" /><path
       style="fill:#4e9a06;fill-rule:evenodd;stroke:none;stroke-width:1.99012;stroke-linecap:butt;stroke-linejoin:miter;stroke-dasharray:none;stroke-opacity:1"
       d="m 112.66113,14.24105 3.72877,13.76173 -30.366698,26.478444 -20.311169,6.62195 z"
       id="path560"
       sodipodi:nodetypes="ccccc" /><path
       style="fill:#8ae234;fill-rule:evenodd;stroke:none;stroke-width:1.99012;stroke-linecap:butt;stroke-linejoin:miter;stroke-dasharray:none;stroke-opacity:1"
       d="M 96.53157,17.139697 115.41762,12.015559 89.04141,55.660164 73.421622,60.816868 Z"
       id="path558"
       sodipodi:nodetypes="ccccc" /><path
       style="fill:#4e9a06;fill-rule:evenodd;stroke:none;stroke-width:1.99012;stroke-linecap:butt;stroke-linejoin:miter;stroke-dasharray:none;stroke-opacity:1"
       d="M 98.67657,50.652315 95.837477,66.621843 54.535144,79.863276 50.172927,74.635847 Z"
       id="path611"
       sodipodi:nodetypes="ccccc" /><path
       style="fill:#5faf13;fill-opacity:1;fill-rule:evenodd;stroke:none;stroke-width:1.99012;stroke-linecap:butt;stroke-linejoin:miter;stroke-dasharray:none;stroke-opacity:1"
       d="M 105.95972,33.130554 109.0508,45.932996 69.088355,68.181337 50.74786,69.669261 Z"
       id="path562"
       sodipodi:nodetypes="ccccc" /><path
       style="color:#000000;fill:#c4a000;fill-rule:evenodd;stroke:none;stroke-width:0.995372;stroke-linecap:round;-inkscape-stroke:none"
       d="m 22.572266,110.80078 a 0.99968499,0.99968499 0 0 0 -0.789063,1.17188 c 0.519121,2.65961 0.380414,5.87003 -0.470703,8.26172 a 0.99968499,0.99968499 0 0 0 0.605469,1.27734 0.99968499,0.99968499 0 0 0 1.277343,-0.60547 c 1.011294,-2.84179 1.135926,-6.30853 0.548829,-9.31641 a 0.99968499,0.99968499 0 0 0 -1.171875,-0.78906 z"
       id="path670" /><path
       style="color:#000000;fill:#c4a000;fill-rule:evenodd;stroke:none;stroke-width:0.995372;stroke-linecap:round;-inkscape-stroke:none"
       d="m 21.855469,109.53125 a 0.99968499,0.99968499 0 0 0 -1.392578,0.24609 l -5.845703,8.3418 a 0.99968499,0.99968499 0 0 0 0.24414,1.39258 0.99968499,0.99968499 0 0 0 1.392578,-0.24609 l 5.845703,-8.3418 a 0.99968499,0.99968499 0 0 0 -0.24414,-1.39258 z"
       id="path668" /><path
       style="color:#000000;fill:#c4a000;fill-rule:evenodd;stroke:none;stroke-width:0.995372;stroke-linecap:round;-inkscape-stroke:none"
       d="m 18.320312,107.01563 a 0.99968499,0.99968499 0 0 0 -0.746093,0.17382 l -8.2402346,5.91993 a 0.99968499,0.99968499 0 0 0 -0.2285156,1.39453 0.99968499,0.99968499 0 0 0 1.3964842,0.22851 l 8.238281,-5.91992 a 0.99968499,0.99968499 0 0 0 0.230469,-1.39453 0.99968499,0.99968499 0 0 0 -0.650391,-0.40234 z"
       id="path666" /><path
       style="color:#000000;fill:#c4a000;fill-rule:evenodd;stroke:none;stroke-width:0.995372;stroke-linecap:round;-inkscape-stroke:none"
       d="m 17.166016,103.95313 c -3.192446,0.32978 -6.934189,0.32559 -10.0000004,3.47851 a 0.99968499,0.99968499 0 0 0 0.019531,1.41406 0.99968499,0.99968499 0 0 0 1.4140625,-0.0195 c 2.5063939,-2.57761 5.4317689,-2.53781 8.7714849,-2.88281 a 0.99968499,0.99968499 0 0 0 0.892578,-1.09766 0.99968499,0.99968499 0 0 0 -1.097656,-0.89257 z"
       id="path664" /><path
       style="fill:#8ae234;fill-rule:evenodd;stroke:none;stroke-width:1.99012;stroke-linecap:butt;stroke-linejoin:miter;stroke-dasharray:none;stroke-opacity:1"
       d="M 16.400086,99.074245 53.386198,65.369416 107.71006,46.569501 62.593067,76.05552 27.602134,112.21764 C 20.063218,118.44043 7.8362502,108.28589 16.400086,99.074245 Z"
       id="path613"
       sodipodi:nodetypes="cccccc" /></g><path
     style="fill:#b4ec7e;fill-opacity:1;fill-rule:evenodd;stroke:none;stroke-width:1px;stroke-linecap:butt;stroke-linejoin:miter;stroke-opacity:1"
     d="M 58.080453,75.135271 C 49.807475,84.294369 44.164637,90.86197 33.258301,103.2003 c -7.444503,10.096 -15.297738,7.84987 -17.226005,0.77552 4.67283,6.68746 9.632324,4.69037 15.212756,-1.40048 10.000418,-10.915116 20.147502,-24.690611 24.560017,-28.142428 1.535475,-1.20117 3.756758,-1.27725 2.275384,0.702359 z"
     id="path389"
     sodipodi:nodetypes="cccssc" /></g></svg>
