<?xml version="1.0" encoding="UTF-8" standalone="no"?>
<!-- Generator: Adobe Illustrator 20.1.0, SVG Export Plug-In . SVG Version: 6.00 Build 0)  -->

<svg
   version="1.1"
   id="Layer_1"
   x="0px"
   y="0px"
   viewBox="0 0 128 128"
   xml:space="preserve"
   sodipodi:docname="termleek.svg"
   width="128"
   height="128"
   inkscape:version="1.2.2 (b0a8486541, 2022-12-01)"
   xmlns:inkscape="http://www.inkscape.org/namespaces/inkscape"
   xmlns:sodipodi="http://sodipodi.sourceforge.net/DTD/sodipodi-0.dtd"
   xmlns="http://www.w3.org/2000/svg"
   xmlns:svg="http://www.w3.org/2000/svg"><defs
   id="defs264" /><sodipodi:namedview
   id="namedview262"
   pagecolor="#ffffff"
   bordercolor="#999999"
   borderopacity="1"
   inkscape:showpageshadow="0"
   inkscape:pageopacity="0"
   inkscape:pagecheckerboard="0"
   inkscape:deskcolor="#d1d1d1"
   showgrid="false"
   inkscape:zoom="4.078125"
   inkscape:cx="63.877395"
   inkscape:cy="64"
   inkscape:window-width="1366"
   inkscape:window-height="729"
   inkscape:window-x="0"
   inkscape:window-y="0"
   inkscape:window-maximized="1"
   inkscape:current-layer="Layer_1" />









<g
   id="g589"
   style="stroke-width:2;stroke-dasharray:none"><path
     id="path556-6"
     style="fill:#babdb6;fill-rule:evenodd;stroke:none;stroke-width:2;stroke-linecap:butt;stroke-linejoin:miter;stroke-opacity:1;stroke-dasharray:none"
     d="m 100.18436,3.7192701 c -6.298973,1.928992 -12.598143,3.857354 -18.896972,5.7868298 -1.41293,4.2745211 -2.829637,8.5477911 -4.24446,12.8216851 -1.994645,0.959101 -4.453554,1.460165 -6.160528,2.706498 -1.106945,2.859125 -2.211641,5.719118 -3.317393,8.578704 -4.10907,1.346113 -8.218679,2.690587 -12.327185,4.038419 -2.667075,8.185988 -5.329327,16.373547 -7.994421,24.560177 -11.958215,10.961772 -24.05408,21.787651 -35.926912,32.833722 -1.4509377,1.233648 -1.7595179,3.655165 -3.8980165,3.900581 -3.2178616,1.453034 -6.3769846,3.847814 -7.41313766,7.318574 0.03520465,1.97443 -0.27548844,4.047 1.19336836,5.61463 1.2096383,1.40887 0.4268503,3.23028 1.4925806,4.79228 0.4224347,1.98756 2.4667036,3.0663 3.9886748,4.09807 1.7741847,-0.0565 1.899773,2.26783 3.303459,3.22843 1.0726924,1.3543 3.1443724,1.66116 4.7017884,2.09798 1.810921,-0.91011 3.124238,0.47756 4.530363,1.44882 2.120118,0.25831 4.385091,0.76393 6.240388,-0.64774 2.747799,-1.06022 3.768164,-4.26958 4.326372,-6.94792 0.294959,-1.42911 0.108658,-2.98892 1.658172,-3.67096 10.783527,-11.14442 21.567354,-22.288547 32.350999,-33.432856 12.327279,-3.95178 24.65368,-7.906296 36.98155,-11.85623 0.88312,-4.974773 1.76997,-9.948879 2.655,-14.923311 3.92329,-2.687495 7.99253,-5.13354 12.19178,-7.364521 -0.83872,-3.471591 -1.6791,-6.942778 -2.51959,-10.413942 3.31462,-2.890139 6.63058,-5.778737 9.94298,-8.671414 -1.41929,-4.130459 -2.83757,-8.261264 -4.25623,-12.39194 3.07119,-5.076362 6.14199,-10.1529644 9.21301,-15.2294298 -6.24404,1.6934675 -12.48833,3.3860459 -18.73214,5.0804009 0.85557,-2.3076676 1.71113,-4.6153354 2.56669,-6.92300334 -3.8834,1.18915564 -7.76679,2.37831084 -11.65019,3.56746634 z" /><g
     id="g1295"
     transform="matrix(3.0140967,0,0,3.0140967,3.3870176,4.0896959)"
     style="stroke-width:0.66354872;stroke-dasharray:none"><path
       style="fill:#73d216;fill-rule:evenodd;stroke:#000000;stroke-width:0.66354872;stroke-linecap:butt;stroke-linejoin:miter;stroke-opacity:1;stroke-dasharray:none"
       d="M 27.539279,3.4955922 32.82111,1.8779525 27.982126,14.939601 22.993332,17.225 Z"
       id="path556"
       sodipodi:nodetypes="ccccc" /><path
       style="fill:#73d216;fill-rule:evenodd;stroke:#000000;stroke-width:0.66354872;stroke-linecap:butt;stroke-linejoin:miter;stroke-opacity:1;stroke-dasharray:none"
       d="m 15.272593,23.980533 3.638375,-11.173522 5.211404,-1.705805 -4.430015,8.599329 z"
       id="path498"
       sodipodi:nodetypes="ccccc" /><path
       style="fill:#4e9a06;fill-rule:evenodd;stroke:#000000;stroke-width:0.66354872;stroke-linecap:butt;stroke-linejoin:miter;stroke-opacity:1;stroke-dasharray:none"
       d="M 30.084034,6.0838764 24.100688,8.4768747 18.790751,22.222578 23.564865,20.13912 Z"
       id="path500"
       sodipodi:nodetypes="ccccc" /><path
       style="fill:#8ae234;fill-rule:evenodd;stroke:#000000;stroke-width:0.66354872;stroke-linecap:butt;stroke-linejoin:miter;stroke-opacity:1;stroke-dasharray:none"
       d="M 36.254347,3.3679591 37.49146,7.9337483 27.416567,16.718617 20.677842,18.91561 Z"
       id="path560"
       sodipodi:nodetypes="ccccc" /><path
       style="fill:#4e9a06;fill-rule:evenodd;stroke:#000000;stroke-width:0.66354872;stroke-linecap:butt;stroke-linejoin:miter;stroke-opacity:1;stroke-dasharray:none"
       d="M 30.902974,4.3296556 37.16888,2.629598 28.417931,17.109759 23.235686,18.820621 Z"
       id="path558"
       sodipodi:nodetypes="ccccc" /><path
       style="fill:#4e9a06;fill-rule:evenodd;stroke:#000000;stroke-width:0.66354872;stroke-linecap:butt;stroke-linejoin:miter;stroke-opacity:1;stroke-dasharray:none"
       d="m 31.61463,15.448283 -0.941938,5.29828 -13.703055,4.393168 -1.447272,-1.734327 z"
       id="path611"
       sodipodi:nodetypes="ccccc" /><path
       style="fill:#4e9a06;fill-rule:evenodd;stroke:#000000;stroke-width:0.66354872;stroke-linecap:butt;stroke-linejoin:miter;stroke-opacity:1;stroke-dasharray:none"
       d="m 34.030991,9.6350121 1.025544,4.2475219 -13.258516,7.381429 -6.084906,0.493655 z"
       id="path562"
       sodipodi:nodetypes="ccccc" /><path
       style="fill:none;fill-rule:evenodd;stroke:#000000;stroke-width:0.66354872;stroke-linecap:round;stroke-linejoin:miter;stroke-opacity:1;stroke-dasharray:none"
       d="m 6.4286381,35.729208 c 0.1835075,0.940163 0.1398992,2.047867 -0.169051,2.916033"
       id="path670"
       sodipodi:nodetypes="cc" /><path
       style="fill:none;fill-rule:evenodd;stroke:#000000;stroke-width:0.66354872;stroke-linecap:round;stroke-linejoin:miter;stroke-opacity:1;stroke-dasharray:none"
       d="M 5.9367505,35.254602 3.9972894,38.022151"
       id="path668" /><path
       style="fill:none;fill-rule:evenodd;stroke:#000000;stroke-width:0.66354872;stroke-linecap:round;stroke-linejoin:miter;stroke-opacity:1;stroke-dasharray:none"
       d="m 4.9005892,34.475187 -2.7337506,1.96383"
       id="path666" /><path
       style="fill:none;fill-rule:evenodd;stroke:#000000;stroke-width:0.66354872;stroke-linecap:round;stroke-linejoin:miter;stroke-dasharray:none;stroke-opacity:1"
       d="M 4.6057691,33.462239 C 3.5221663,33.574177 2.4159104,33.566809 1.491552,34.517432"
       id="path664"
       sodipodi:nodetypes="cc" /><path
       style="fill:#8ae234;fill-rule:evenodd;stroke:#000000;stroke-width:0.66354872;stroke-linecap:butt;stroke-linejoin:miter;stroke-opacity:1;stroke-dasharray:none"
       d="M 4.3174025,31.513438 16.588446,20.33104 34.611709,14.09371 19.643049,23.876415 8.0339547,35.87408 C 5.5327356,37.938642 1.4761413,34.569624 4.3174025,31.513438 Z"
       id="path613"
       sodipodi:nodetypes="cccccc" /></g></g></svg>
